<svg width="84" height="84" viewBox="0 0 84 84" fill="none" xmlns="http://www.w3.org/2000/svg">
<rect width="84" height="84" rx="24" fill="url(#paint0_linear_3035_635)"/>
<path d="M25.0119 52.3556L36.4875 45.9069L36.6756 45.3556L36.4875 45.0494H35.9319L34.0069 44.9313L27.4444 44.7563L21.7569 44.5244L16.2444 44.2313L14.8619 43.9381L13.5625 42.2319L13.6937 41.3744L14.8619 40.5869L16.5244 40.7313L20.2125 40.9806L25.7556 41.3569L29.7631 41.5931L35.7131 42.2188H36.6625L36.7937 41.8381L36.4744 41.6062L36.225 41.3744L30.4937 37.4937L24.2944 33.3813L21.0438 31.0187L19.2806 29.8244L18.3881 28.7L18.0119 26.25L19.6 24.4869L21.7437 24.6313L22.2819 24.7756L24.4563 26.4381L29.0938 30.0256L35.1444 34.4881L36.0369 35.2319L36.3869 34.9869L36.4306 34.8119L36.0369 34.1381L32.7381 28.1881L29.225 22.1375L27.6631 19.6306L27.2563 18.1256C27.1011 17.5459 27.0174 16.9494 27.0069 16.3494L28.8312 13.8819L29.8375 13.5625L32.2569 13.8819L33.2806 14.7744L34.7812 18.2131L37.2181 23.6381L40.9937 31.0056L42.1006 33.1931L42.7 35.2187L42.9188 35.8444H43.2994V35.4944L43.6056 31.3381L44.1744 26.25L44.7256 19.6875L44.9181 17.8369L45.8369 15.6188L47.6569 14.4244L49.0744 15.1069L50.2381 16.7694L50.0806 17.85L49.3806 22.3562L48.0244 29.4131L47.1319 34.1381H47.6437L48.2431 33.5431L50.6319 30.3625L54.6438 25.3444L56.4244 23.3494L58.4938 21.1444L59.8194 20.0944H62.3306L64.1812 22.8375L63.35 25.6681L60.7687 28.9494L58.625 31.7188L55.5494 35.8619L53.6244 39.1694L53.7994 39.4319L54.25 39.3881L61.1931 37.9181L64.9381 37.2312L69.4181 36.4569L71.4437 37.4062L71.6625 38.3688L70.8619 40.3375L66.0756 41.5187L60.4625 42.6431L52.1063 44.625L52.0056 44.6994L52.1194 44.8437L55.8819 45.1937L57.4875 45.2812H61.425L68.7619 45.8194L70.6869 47.0881L71.8375 48.6369L71.6494 49.8181L68.6875 51.3188L64.7062 50.3694L55.4006 48.1556L52.2069 47.3506H51.7694V47.6131L54.425 50.2119L59.2944 54.6131L65.3931 60.2875L65.6994 61.6875L64.9119 62.7944L64.0806 62.6806L58.7125 58.6556L56.6431 56.8313L51.9619 52.8937H51.6556V53.3006L52.7319 54.8756L58.4369 63.4375L58.7256 66.0625L58.3187 66.9244L56.8444 67.4319L55.2256 67.1431L51.8875 62.4619L48.4444 57.1813L45.675 52.4563L45.3381 52.6444L43.7063 70.2931L42.9319 71.1944L41.1556 71.8812L39.6812 70.7569L38.8937 68.9369L39.6812 65.3494L40.6306 60.6681L41.4006 56.9494L42.1006 52.325L42.5119 50.7938L42.4812 50.6931L42.1444 50.7369L38.6619 55.5188L33.3506 62.6806L29.1506 67.1694L28.1444 67.5631L26.4119 66.6619L26.5694 65.0563L27.5494 63.6256L33.3506 56.2494L36.8506 51.6688L39.1125 49.0306V48.65H38.9681L23.5506 58.6688L20.8119 59.0188L19.6306 57.9119L19.775 56.0875L20.3306 55.4881L24.9681 52.2944H24.9506L25.0119 52.3556Z" fill="white"/>
<defs>
<linearGradient id="paint0_linear_3035_635" x1="6.41667" y1="-2.33333" x2="90.4167" y2="106.75" gradientUnits="userSpaceOnUse">
<stop stop-color="#FFA081"/>
<stop offset="1" stop-color="#A2644F"/>
</linearGradient>
</defs>
</svg>
