<svg width="84" height="84" viewBox="0 0 84 84" fill="none" xmlns="http://www.w3.org/2000/svg">
<rect x="0.388889" y="0.388889" width="83.2222" height="83.2222" rx="23.6111" fill="url(#paint0_linear_3035_627)" fill-opacity="0.5"/>
<rect x="0.388889" y="0.388889" width="83.2222" height="83.2222" rx="23.6111" fill="#061424" fill-opacity="0.2"/>
<rect x="0.388889" y="0.388889" width="83.2222" height="83.2222" rx="23.6111" fill="url(#paint1_linear_3035_627)" fill-opacity="0.2"/>
<rect x="0.388889" y="0.388889" width="83.2222" height="83.2222" rx="23.6111" stroke="url(#paint2_linear_3035_627)" stroke-width="0.777778"/>
<path d="M43.7999 17.5308L39.7907 23.2362C39.1739 24.1306 38.1253 24.6857 37.0151 24.6857H15.1187V17.5C15.0878 17.5308 43.7999 17.5308 43.7999 17.5308Z" fill="url(#paint3_linear_3035_627)"/>
<path d="M71.0314 17.5308L36.6139 66.2888H13.6689L48.0864 17.5308H71.0314Z" fill="url(#paint4_linear_3035_627)"/>
<path d="M40.9004 66.2905L44.9404 60.5542C45.5572 59.6599 46.6058 59.1047 47.716 59.1047H69.5816V66.2905H40.9004Z" fill="url(#paint5_linear_3035_627)"/>
<defs>
<linearGradient id="paint0_linear_3035_627" x1="4.58182" y1="-31.0154" x2="135.833" y2="22.323" gradientUnits="userSpaceOnUse">
<stop stop-color="#5F5F5F"/>
<stop offset="1" stop-color="#000102"/>
</linearGradient>
<linearGradient id="paint1_linear_3035_627" x1="-1.12378e-06" y1="3.11111" x2="46.2778" y2="52.1111" gradientUnits="userSpaceOnUse">
<stop stop-color="#F24E1E" stop-opacity="0.5"/>
<stop offset="1" stop-opacity="0"/>
</linearGradient>
<linearGradient id="paint2_linear_3035_627" x1="31.3091" y1="-9.04616" x2="121.585" y2="132.889" gradientUnits="userSpaceOnUse">
<stop stop-color="white" stop-opacity="0"/>
<stop offset="1" stop-color="white" stop-opacity="0.3"/>
</linearGradient>
<linearGradient id="paint3_linear_3035_627" x1="28.5586" y1="19.0705" x2="29.664" y2="27.3023" gradientUnits="userSpaceOnUse">
<stop stop-color="white"/>
<stop offset="1" stop-color="#999999"/>
</linearGradient>
<linearGradient id="paint4_linear_3035_627" x1="40.5488" y1="28.1875" x2="62.0019" y2="75.2766" gradientUnits="userSpaceOnUse">
<stop stop-color="white"/>
<stop offset="1" stop-color="#999999"/>
</linearGradient>
<linearGradient id="paint5_linear_3035_627" x1="54.3403" y1="60.6753" x2="55.4457" y2="68.907" gradientUnits="userSpaceOnUse">
<stop stop-color="white"/>
<stop offset="1" stop-color="#999999"/>
</linearGradient>
</defs>
</svg>
