<svg width="84" height="84" viewBox="0 0 84 84" fill="none" xmlns="http://www.w3.org/2000/svg">
<rect width="84" height="84" rx="24" fill="white"/>
<path d="M56.2438 21.7776H52.9072C51.9351 21.7776 51.2113 22.1426 50.8321 22.7957L45.8892 29.4996L50.2185 34.9998L57.7674 24.9343C58.6016 23.993 58.312 23.1478 58.1535 22.8277C57.8157 22.1682 57.1056 21.7776 56.2438 21.7776Z" fill="#75BB43"/>
<path d="M32.8629 22.73C32.1509 21.7776 31.1971 21.7776 30.8835 21.7776H27.7936C27.0031 21.7776 26.3564 22.1429 26.0167 22.7757C25.6705 23.4215 25.7423 24.1977 26.2257 24.9218L37.6775 40.78L24.5076 59.1235C24.0504 59.8149 23.985 60.5782 24.3313 61.224C24.671 61.8567 25.3177 62.222 26.1082 62.222H29.27C30.08 62.222 30.7986 61.798 31.1514 61.1392L45.8891 40.8517L32.8695 22.7365L32.8629 22.73Z" fill="#0A99D6"/>
<path d="M50.0883 46.6667L45.8892 52.2396L53.4326 61.9414L53.6293 62.0198C53.9278 62.1504 54.2534 62.2223 54.579 62.2223H57.7877C58.5678 62.2223 59.2258 61.8891 59.5922 61.3142C59.9788 60.7197 59.9856 59.9749 59.6261 59.2824L50.0883 46.6667Z" fill="#EB2385"/>
</svg>
