<svg width="84" height="84" viewBox="0 0 84 84" fill="none" xmlns="http://www.w3.org/2000/svg">
<rect x="0.388889" y="0.388889" width="83.2222" height="83.2222" rx="23.6111" fill="url(#paint0_linear_3035_638)" fill-opacity="0.5"/>
<rect x="0.388889" y="0.388889" width="83.2222" height="83.2222" rx="23.6111" fill="#061424" fill-opacity="0.2"/>
<rect x="0.388889" y="0.388889" width="83.2222" height="83.2222" rx="23.6111" fill="url(#paint1_linear_3035_638)" fill-opacity="0.2"/>
<rect x="0.388889" y="0.388889" width="83.2222" height="83.2222" rx="23.6111" stroke="url(#paint2_linear_3035_638)" stroke-width="0.777778"/>
<g clip-path="url(#clip0_3035_638)">
<path d="M42 42.3892C42 37.5135 45.9667 33.5469 50.8424 33.5469C55.7181 33.5469 59.6847 37.5135 59.6847 42.3892C59.6847 47.2649 55.7181 51.2316 50.8424 51.2316C45.9667 51.2316 42 47.2649 42 42.3892Z" fill="#1ABCFE"/>
<path d="M24.3979 59.991C24.3979 55.1153 28.3646 51.1487 33.2403 51.1487H42V59.991C42 64.8667 38.0334 68.8334 33.1577 68.8334C28.282 68.8334 24.3979 64.8667 24.3979 59.991Z" fill="#0ACF83"/>
<path d="M42 15.9443V33.5464H50.8424C55.7181 33.5464 59.6847 29.5798 59.6847 24.7041C59.6847 19.8284 55.7181 15.9443 50.8424 15.9443H42Z" fill="#FF7262"/>
<path d="M24.3979 24.7867C24.3979 29.6624 28.3646 33.6291 33.2403 33.6291H42V15.9443H33.1577C28.282 15.9443 24.3979 19.911 24.3979 24.7867Z" fill="#F24E1E"/>
<path d="M24.3979 42.3892C24.3979 47.2649 28.3646 51.2316 33.2403 51.2316H42V33.5469H33.1577C28.282 33.5469 24.3979 37.5135 24.3979 42.3892Z" fill="#A259FF"/>
</g>
<defs>
<linearGradient id="paint0_linear_3035_638" x1="4.58182" y1="-31.0154" x2="135.833" y2="22.323" gradientUnits="userSpaceOnUse">
<stop stop-color="#5F5F5F"/>
<stop offset="1" stop-color="#000102"/>
</linearGradient>
<linearGradient id="paint1_linear_3035_638" x1="-1.12378e-06" y1="3.11111" x2="46.2778" y2="52.1111" gradientUnits="userSpaceOnUse">
<stop stop-color="#F24E1E" stop-opacity="0.5"/>
<stop offset="1" stop-opacity="0"/>
</linearGradient>
<linearGradient id="paint2_linear_3035_638" x1="31.3091" y1="-9.04616" x2="121.585" y2="132.889" gradientUnits="userSpaceOnUse">
<stop stop-color="white" stop-opacity="0"/>
<stop offset="1" stop-color="white" stop-opacity="0.3"/>
</linearGradient>
<clipPath id="clip0_3035_638">
<rect width="52.8889" height="52.8889" fill="white" transform="translate(15.5557 15.9443)"/>
</clipPath>
</defs>
</svg>
