<svg width="84" height="84" viewBox="0 0 84 84" fill="none" xmlns="http://www.w3.org/2000/svg">
<rect x="0.388889" y="0.388889" width="83.2222" height="83.2222" rx="23.6111" fill="white"/>
<rect x="0.388889" y="0.388889" width="83.2222" height="83.2222" rx="23.6111" stroke="url(#paint0_linear_3035_657)" stroke-width="0.777778"/>
<g clip-path="url(#clip0_3035_657)">
<path d="M19.0434 52.8224L31.5201 28.5391C31.7783 28.034 32.1691 27.6087 32.6505 27.3087C33.1319 27.0087 33.6859 26.8454 34.2531 26.8361C34.8202 26.8269 35.3792 26.9721 35.8702 27.2562C36.3612 27.5404 36.7656 27.9527 37.0401 28.4491L50.4668 52.6424C51.8234 55.0891 49.5534 57.9624 46.8668 57.1924L35.8101 54.0191C35.2481 53.8579 34.6521 53.8579 34.0901 54.0191L22.6901 57.2857C20.0501 58.0424 17.7868 55.2724 19.0434 52.8257V52.8224Z" fill="#0066FF"/>
<path d="M56.1938 55.7124L61.3471 57.1924C64.0304 57.9624 66.3038 55.0924 64.9471 52.6424L51.5171 28.4491C51.2426 27.9527 50.8382 27.5404 50.3472 27.2562C49.8562 26.9721 49.2972 26.8269 48.7301 26.8361C48.1629 26.8454 47.6089 27.0087 47.1275 27.3087C46.6461 27.6087 46.2553 28.034 45.9971 28.5391L43.7871 32.8391L56.1871 55.7124H56.1938Z" fill="#0066FF" fill-opacity="0.8"/>
</g>
<defs>
<linearGradient id="paint0_linear_3035_657" x1="31.3091" y1="-9.04616" x2="121.585" y2="132.889" gradientUnits="userSpaceOnUse">
<stop stop-color="white" stop-opacity="0"/>
<stop offset="1" stop-color="white" stop-opacity="0.3"/>
</linearGradient>
<clipPath id="clip0_3035_657">
<rect width="46.6667" height="46.6667" fill="white" transform="translate(18.6665 19.0557)"/>
</clipPath>
</defs>
</svg>
