<svg width="84" height="84" viewBox="0 0 84 84" fill="none" xmlns="http://www.w3.org/2000/svg">
<rect x="0.388889" y="0.388889" width="83.2222" height="83.2222" rx="23.6111" fill="url(#paint0_linear_3035_645)" fill-opacity="0.5"/>
<rect x="0.388889" y="0.388889" width="83.2222" height="83.2222" rx="23.6111" fill="#061424" fill-opacity="0.2"/>
<rect x="0.388889" y="0.388889" width="83.2222" height="83.2222" rx="23.6111" fill="url(#paint1_linear_3035_645)" fill-opacity="0.2"/>
<rect x="0.388889" y="0.388889" width="83.2222" height="83.2222" rx="23.6111" stroke="url(#paint2_linear_3035_645)" stroke-width="0.777778"/>
<path d="M41.9997 65.0253L17.0361 35.9893L27.8255 21.2862L41.9997 19.7524L56.1739 21.2862L66.9632 35.9893L41.9997 65.0253Z" fill="#FFAE00"/>
<path d="M41.9997 65.0255L17.0361 35.9895H66.9632L41.9997 65.0255Z" fill="#EC6C00"/>
<path d="M42 65.0255L27.1382 35.9895H56.8617L42 65.0255Z" fill="#FFAE00"/>
<path d="M42 19.7524L27.1382 35.9893H56.8617L42 19.7524Z" fill="#FFEFB4"/>
<path d="M27.8255 21.2866L22.2721 28.6911L17.0361 35.9897H27.2437L27.8255 21.2866ZM56.1739 21.2866L61.7272 28.6911L66.9632 35.9897H56.7557L56.1739 21.2866Z" fill="#FFAE00"/>
<path d="M27.8257 21.2862L27.1382 35.9893L42 19.7524L27.8257 21.2862ZM56.1742 21.2862L56.8617 35.9893L42 19.7524L56.1742 21.2862Z" fill="#FED305"/>
<defs>
<linearGradient id="paint0_linear_3035_645" x1="4.58182" y1="-31.0154" x2="135.833" y2="22.323" gradientUnits="userSpaceOnUse">
<stop stop-color="#5F5F5F"/>
<stop offset="1" stop-color="#000102"/>
</linearGradient>
<linearGradient id="paint1_linear_3035_645" x1="9.9035e-07" y1="0.388888" x2="85.9444" y2="86.7222" gradientUnits="userSpaceOnUse">
<stop stop-color="#FFAE00" stop-opacity="0.5"/>
<stop offset="1" stop-opacity="0"/>
</linearGradient>
<linearGradient id="paint2_linear_3035_645" x1="31.3091" y1="-9.04616" x2="121.585" y2="132.889" gradientUnits="userSpaceOnUse">
<stop stop-color="white" stop-opacity="0"/>
<stop offset="1" stop-color="white" stop-opacity="0.3"/>
</linearGradient>
</defs>
</svg>
